PathFileType	4	(X/Y/Z)	./001.trc	
DataRate	CameraRate	NumFrames	NumMarkers	Units	OrigDataRate	OrigDataStartFrame	OrigNumFrames	
180	180	4	0	mm	180	1	951	
Frame#	Time	LIAS			RIAS			LIPS			RIPS			LFTC			RFTC			CV7			SJN			TV2			SXS			TV7			LAH			RAH			LPH			RPH			LHGT			LCAJ			LHLE			LUA			LHM2			LUSP			LRSP			RHGT			RCAJ			RHLE			RHME			RUA			RHM2			RUSP			RRSP			LFLE			LTH			LFAL			LTAM			LSK			LFAX			LTTC			LFM5			LFM2			LFM1			LFCC			LDP1			RFLE			RFME			RTH			RFAL			RTAM			RSK			RFAX			RTTC			RFM5			RFM2			RFM1			RFCC			RDP1			LHME				
		X1	Y1	Z1	X2	Y2	Z2	X3	Y3	Z3	X4	Y4	Z4	X5	Y5	Z5	X6	Y6	Z6	X7	Y7	Z7	X8	Y8	Z8	X9	Y9	Z9	X10	Y10	Z10	X11	Y11	Z11	X12	Y12	Z12	X13	Y13	Z13	X14	Y14	Z14	X15	Y15	Z15	X16	Y16	Z16	X17	Y17	Z17	X18	Y18	Z18	X19	Y19	Z19	X20	Y20	Z20	X21	Y21	Z21	X22	Y22	Z22	X23	Y23	Z23	X24	Y24	Z24	X25	Y25	Z25	X26	Y26	Z26	X27	Y27	Z27	X28	Y28	Z28	X29	Y29	Z29	X30	Y30	Z30	X31	Y31	Z31	X32	Y32	Z32	X33	Y33	Z33	X34	Y34	Z34	X35	Y35	Z35	X36	Y36	Z36	X37	Y37	Z37	X38	Y38	Z38	X39	Y39	Z39	X40	Y40	Z40	X41	Y41	Z41	X42	Y42	Z42	X43	Y43	Z43	X44	Y44	Z44	X45	Y45	Z45	X46	Y46	Z46	X47	Y47	Z47	X48	Y48	Z48	X49	Y49	Z49	X50	Y50	Z50	X51	Y51	Z51	X52	Y52	Z52	X53	Y53	Z53	X54	Y54	Z54	X55	Y55	Z55	X56	Y56	Z56		
	
1.000000000000000000e+00	0.000000000000000000e+00	-1.002019999999999982e+02	9.258089999999999691e+02	-9.655900000000001171e+01	-2.934149999999999636e+02	9.248700000000000045e+02	-2.268259999999999934e+02	-1.513499999999999979e+01	9.815259999999999536e+02	-3.413300000000000409e+02	-1.039519999999999982e+02	9.864640000000000555e+02	-4.052520000000000095e+02	1.168399999999999928e+01	8.142770000000000437e+02	-1.122240000000000038e+02	-3.091490000000000009e+02	8.182009999999999081e+02	-3.347319999999999709e+02	-6.514300000000000068e+01	1.378667000000000144e+03	-3.689159999999999968e+02	-1.625630000000000166e+02	1.326071999999999889e+03	-2.315840000000000032e+02	-5.068999999999999773e+01	1.292855999999999995e+03	-4.030329999999999586e+02	-1.907390000000000043e+02	1.219336000000000013e+03	-1.825250000000000057e+02	-4.972800000000000153e+01	1.164533999999999878e+03	-4.132319999999999709e+02	-5.663499999999999801e+01	1.612054000000000087e+03	-2.481899999999999977e+02	-1.817549999999999955e+02	1.607483999999999924e+03	-3.019629999999999654e+02	-6.316000000000000725e+00	1.545808999999999969e+03	-3.168570000000000277e+02	-1.289960000000000093e+02	1.551833999999999833e+03	-3.902570000000000050e+02	6.813599999999999568e+01	1.269970000000000027e+03	-3.175600000000000023e+02	4.058800000000000097e+01	1.344625000000000000e+03	-1.748170000000000073e+02	1.039360000000000070e+02	1.069372000000000071e+03	-6.259299999999999642e+01	1.318310000000000173e+02	1.130169999999999845e+03	-1.533340000000000032e+02	-1.835569999999999879e+02	1.168897999999999911e+03	-5.020899999999999608e+01	-1.449979999999999905e+02	1.079993999999999915e+03	-9.197499999999999432e+01	-1.336479999999999961e+02	1.168801999999999907e+03	-8.587800000000000011e+01	-1.774170000000000016e+02	1.288437999999999874e+03	-4.706050000000000182e+02	-2.312390000000000043e+02	1.365610999999999876e+03	-3.866399999999999864e+02	-4.127400000000000091e+02	1.093333000000000084e+03	-4.199329999999999927e+02	-3.032900000000000205e+02	1.034666000000000167e+03	-4.284470000000000027e+02	-3.219099999999999682e+02	1.172533000000000129e+03	-4.833960000000000150e+02	-3.279979999999999905e+02	1.161289999999999964e+03	-1.523669999999999902e+02	-3.356080000000000041e+02	1.067199999999999818e+03	-1.872159999999999798e+02	-2.817009999999999650e+02	1.132705000000000155e+03	-2.210800000000000125e+02	9.074300000000000921e+01	4.663079999999999927e+02	-1.500370000000000061e+02	-3.982800000000000296e+01	5.465380000000000109e+02	-8.631300000000000239e+01	1.434709999999999752e+02	1.159570000000000078e+02	-1.403509999999999991e+02	4.031099999999999994e+01	1.121290000000000049e+02	-1.711740000000000066e+02	5.707500000000000284e+01	2.888549999999999613e+02	-1.115360000000000014e+02	1.238589999999999947e+02	4.103829999999999814e+02	-1.709010000000000105e+02	-6.093999999999999417e+00	4.178089999999999691e+02	-1.146540000000000106e+02	1.056310000000000002e+02	6.270700000000000074e+01	-2.506600000000000250e+01	6.261099999999999710e+01	7.558899999999999864e+01	-4.046199999999999619e+01	1.854499999999999815e+01	5.944100000000000250e+01	-6.617799999999999727e+01	1.406640000000000157e+02	8.602500000000000568e+01	-2.326529999999999916e+02	3.463999999999999968e+00	5.394599999999999795e+01	-1.549900000000000055e+01	-2.475020000000000095e+02	4.544679999999999609e+02	-3.776689999999999827e+02	-4.692500000000000426e+01	4.163379999999999654e+02	-2.244790000000000134e+02	-2.949359999999999786e+02	6.564710000000000036e+02	-2.380760000000000218e+02	-1.950519999999999925e+02	9.373399999999999466e+01	-3.832180000000000177e+02	-1.198100000000000023e+02	1.005820000000000078e+02	-2.965829999999999700e+02	-2.145860000000000127e+02	1.753410000000000082e+02	-3.116940000000000168e+02	-2.321380000000000052e+02	4.037690000000000055e+02	-3.985570000000000164e+02	-2.419669999999999845e+02	3.998329999999999700e+02	-2.891469999999999914e+02	-2.683539999999999850e+02	5.670400000000000063e+01	-2.987379999999999995e+02	-2.462999999999999829e+02	6.850499999999999545e+01	-2.524759999999999707e+02	-2.201809999999999832e+02	5.956199999999999761e+01	-2.172959999999999923e+02	-1.058410000000000082e+02	6.520300000000000296e+01	-4.139329999999999927e+02	-2.472989999999999782e+02	5.341700000000000159e+01	-1.722439999999999998e+02	-1.063520000000000039e+02	4.464099999999999682e+02	-2.857609999999999673e+02
2.000000000000000000e+00	5.556000000000000175e-03	-1.001899999999999977e+02	9.258229999999999791e+02	-9.654699999999999704e+01	-2.933829999999999814e+02	9.248769999999999527e+02	-2.268290000000000077e+02	-1.509399999999999942e+01	9.815240000000000009e+02	-3.413229999999999791e+02	-1.038940000000000055e+02	9.864529999999999745e+02	-4.052560000000000286e+02	1.170599999999999952e+01	8.142789999999999964e+02	-1.121919999999999931e+02	-3.091260000000000332e+02	8.182190000000000509e+02	-3.347269999999999754e+02	-6.510199999999998965e+01	1.378659000000000106e+03	-3.689399999999999977e+02	-1.625330000000000155e+02	1.326078999999999951e+03	-2.316110000000000184e+02	-5.065100000000000335e+01	1.292847999999999956e+03	-4.030529999999999973e+02	-1.907119999999999891e+02	1.219346999999999980e+03	-1.825390000000000157e+02	-4.967699999999999960e+01	1.164522000000000162e+03	-4.132420000000000186e+02	-5.662099999999999511e+01	1.612067000000000007e+03	-2.482600000000000193e+02	-1.817360000000000184e+02	1.607480999999999995e+03	-3.020330000000000155e+02	-6.291999999999999815e+00	1.545819999999999936e+03	-3.169150000000000205e+02	-1.289759999999999991e+02	1.551819999999999936e+03	-3.903110000000000355e+02	6.817199999999999704e+01	1.269979000000000042e+03	-3.175640000000000214e+02	4.061800000000000210e+01	1.344643000000000029e+03	-1.748240000000000123e+02	1.039789999999999992e+02	1.069406000000000176e+03	-6.258299999999999841e+01	1.318689999999999998e+02	1.130192000000000007e+03	-1.533369999999999891e+02	-1.835259999999999820e+02	1.168913999999999987e+03	-5.022100000000000364e+01	-1.449799999999999898e+02	1.080011999999999944e+03	-9.198000000000000398e+01	-1.330069999999999766e+02	1.169057999999999993e+03	-8.560800000000000409e+01	-1.773659999999999854e+02	1.288415000000000191e+03	-4.706279999999999859e+02	-2.311979999999999791e+02	1.365594000000000051e+03	-3.866760000000000446e+02	-4.126730000000000018e+02	1.093301999999999907e+03	-4.199379999999999882e+02	-3.032110000000000127e+02	1.034647999999999911e+03	-4.284619999999999891e+02	-3.218480000000000132e+02	1.172485999999999876e+03	-4.834120000000000346e+02	-3.279549999999999841e+02	1.161325000000000045e+03	-1.523870000000000005e+02	-3.355699999999999932e+02	1.067228000000000065e+03	-1.872330000000000041e+02	-2.816219999999999573e+02	1.132702999999999975e+03	-2.210959999999999752e+02	9.075499999999999545e+01	4.663100000000000023e+02	-1.500049999999999955e+02	-3.982500000000000284e+01	5.465439999999999827e+02	-8.629599999999999227e+01	1.434789999999999850e+02	1.159619999999999891e+02	-1.403330000000000268e+02	4.031499999999999773e+01	1.121329999999999956e+02	-1.711719999999999970e+02	5.708299999999999841e+01	2.888500000000000227e+02	-1.115210000000000008e+02	1.238719999999999999e+02	4.103799999999999955e+02	-1.708559999999999945e+02	-5.806999999999999496e+00	4.179139999999999873e+02	-1.143659999999999997e+02	1.056449999999999960e+02	6.271200000000000330e+01	-2.507099999999999795e+01	6.261200000000000188e+01	7.559200000000001296e+01	-4.045900000000000318e+01	1.855499999999999972e+01	5.944500000000000028e+01	-6.617600000000000193e+01	1.406730000000000018e+02	8.602299999999999613e+01	-2.326550000000000011e+02	3.465000000000000302e+00	5.394599999999999795e+01	-1.549099999999999966e+01	-2.474929999999999950e+02	4.544630000000000223e+02	-3.776479999999999677e+02	-4.691399999999999437e+01	4.163340000000000032e+02	-2.244619999999999891e+02	-2.949169999999999732e+02	6.564890000000000327e+02	-2.380660000000000025e+02	-1.950409999999999968e+02	9.373699999999999477e+01	-3.832200000000000273e+02	-1.198130000000000024e+02	1.005810000000000031e+02	-2.965819999999999936e+02	-2.145939999999999941e+02	1.753470000000000084e+02	-3.116789999999999736e+02	-2.321260000000000048e+02	4.037690000000000055e+02	-3.985369999999999777e+02	-2.419639999999999986e+02	3.998389999999999986e+02	-2.891380000000000337e+02	-2.683530000000000086e+02	5.670300000000000296e+01	-2.987349999999999568e+02	-2.462909999999999968e+02	6.850700000000000500e+01	-2.524710000000000036e+02	-2.201709999999999923e+02	5.956600000000000250e+01	-2.172860000000000014e+02	-1.058290000000000077e+02	6.520499999999999829e+01	-4.139340000000000259e+02	-2.472909999999999968e+02	5.342100000000000648e+01	-1.722369999999999948e+02	-1.063410000000000082e+02	4.464110000000000014e+02	-2.857400000000000091e+02
3.000000000000000000e+00	1.111099999999999935e-02	-1.001709999999999923e+02	9.258269999999999982e+02	-9.653900000000000148e+01	-2.933549999999999613e+02	9.248840000000000146e+02	-2.268380000000000223e+02	-1.506000000000000050e+01	9.815080000000000382e+02	-3.413149999999999977e+02	-1.038580000000000041e+02	9.864349999999999454e+02	-4.052609999999999673e+02	1.171799999999999997e+01	8.142770000000000437e+02	-1.121680000000000064e+02	-3.091159999999999854e+02	8.182700000000000955e+02	-3.347300000000000182e+02	-6.507099999999999795e+01	1.378649999999999864e+03	-3.689730000000000132e+02	-1.624979999999999905e+02	1.326085000000000036e+03	-2.316430000000000007e+02	-5.060799999999999699e+01	1.292839999999999918e+03	-4.030699999999999932e+02	-1.906829999999999927e+02	1.219355999999999995e+03	-1.825649999999999977e+02	-4.962800000000000011e+01	1.164503999999999905e+03	-4.132540000000000191e+02	-5.659899999999999665e+01	1.612084000000000060e+03	-2.483290000000000077e+02	-1.817640000000000100e+02	1.607553999999999860e+03	-3.021530000000000200e+02	-6.270000000000000462e+00	1.545824000000000069e+03	-3.169639999999999986e+02	-1.289519999999999982e+02	1.551814000000000078e+03	-3.903639999999999759e+02	6.821099999999999852e+01	1.269968000000000075e+03	-3.175690000000000168e+02	4.063799999999999812e+01	1.344659000000000106e+03	-1.748369999999999891e+02	1.039920000000000044e+02	1.069440000000000055e+03	-6.255900000000000460e+01	1.318999999999999773e+02	1.130220000000000027e+03	-1.533089999999999975e+02	-1.834950000000000045e+02	1.168938999999999851e+03	-5.022100000000000364e+01	-1.449509999999999934e+02	1.080027000000000044e+03	-9.197299999999999898e+01	-1.329839999999999804e+02	1.169076999999999998e+03	-8.561499999999999488e+01	-1.773220000000000027e+02	1.288391000000000076e+03	-4.706500000000000341e+02	-2.311570000000000107e+02	1.365583999999999833e+03	-3.867189999999999941e+02	-4.126159999999999854e+02	1.093271999999999935e+03	-4.199470000000000027e+02	-3.031380000000000337e+02	1.034606999999999971e+03	-4.284580000000000268e+02	-3.217820000000000391e+02	1.172447999999999865e+03	-4.834329999999999927e+02	-3.279079999999999586e+02	1.161351999999999862e+03	-1.524129999999999825e+02	-3.355159999999999627e+02	1.067250999999999976e+03	-1.872340000000000089e+02	-2.815579999999999927e+02	1.132721999999999980e+03	-2.210930000000000177e+02	9.074799999999999045e+01	4.663000000000000114e+02	-1.499770000000000039e+02	-3.982699999999999818e+01	5.465529999999999973e+02	-8.627200000000000557e+01	1.434850000000000136e+02	1.159609999999999985e+02	-1.403280000000000030e+02	4.032999999999999829e+01	1.121400000000000006e+02	-1.711759999999999877e+02	5.708100000000000307e+01	2.888500000000000227e+02	-1.114969999999999999e+02	1.238699999999999903e+02	4.103799999999999955e+02	-1.708230000000000075e+02	-6.092000000000000526e+00	4.178079999999999927e+02	-1.146059999999999945e+02	1.056440000000000055e+02	6.270900000000000318e+01	-2.507399999999999807e+01	6.261500000000000199e+01	7.559200000000001296e+01	-4.045599999999999596e+01	1.854700000000000060e+01	5.945000000000000284e+01	-6.616900000000001114e+01	1.406800000000000068e+02	8.602299999999999613e+01	-2.326469999999999914e+02	3.467999999999999972e+00	5.394999999999999574e+01	-1.549499999999999922e+01	-2.474840000000000089e+02	4.544639999999999986e+02	-3.776320000000000050e+02	-4.690400000000000347e+01	4.163340000000000032e+02	-2.244399999999999977e+02	-2.948970000000000482e+02	6.565009999999999764e+02	-2.380660000000000025e+02	-1.950399999999999920e+02	9.373399999999999466e+01	-3.832099999999999795e+02	-1.198160000000000025e+02	1.005739999999999981e+02	-2.965749999999999886e+02	-2.145840000000000032e+02	1.753340000000000032e+02	-3.116890000000000214e+02	-2.321149999999999807e+02	4.037700000000000387e+02	-3.985260000000000105e+02	-2.419679999999999893e+02	3.998399999999999750e+02	-2.891129999999999995e+02	-2.683590000000000373e+02	5.670200000000000529e+01	-2.987330000000000041e+02	-2.462999999999999829e+02	6.851500000000000057e+01	-2.524749999999999943e+02	-2.201750000000000114e+02	5.956199999999999761e+01	-2.172870000000000061e+02	-1.058459999999999894e+02	6.520499999999999829e+01	-4.139320000000000164e+02	-2.472839999999999918e+02	5.342199999999999704e+01	-1.722490000000000236e+02	-1.063410000000000082e+02	4.464099999999999682e+02	-2.857210000000000036e+02
4.000000000000000000e+00	1.666700000000000126e-02	-1.001580000000000013e+02	9.258400000000000318e+02	-9.653299999999998704e+01	-2.933269999999999982e+02	9.248969999999999345e+02	-2.268479999999999848e+02	-1.502299999999999969e+01	9.815049999999999955e+02	-3.412919999999999732e+02	-1.037999999999999972e+02	9.864190000000000964e+02	-4.052549999999999955e+02	1.172499999999999964e+01	8.142740000000000009e+02	-1.121439999999999912e+02	-3.090930000000000177e+02	8.182709999999999582e+02	-3.347339999999999804e+02	-6.503100000000000591e+01	1.378644999999999982e+03	-3.689959999999999809e+02	-1.624770000000000039e+02	1.326092000000000098e+03	-2.316690000000000111e+02	-5.055699999999999505e+01	1.292837999999999965e+03	-4.030840000000000032e+02	-1.906610000000000014e+02	1.219362000000000080e+03	-1.825759999999999934e+02	-4.957300000000000040e+01	1.164492999999999938e+03	-4.132560000000000286e+02	-5.657800000000000296e+01	1.612093999999999824e+03	-2.484000000000000057e+02	-1.816990000000000123e+02	1.607480999999999995e+03	-3.021719999999999686e+02	-6.249000000000000554e+00	1.545827999999999975e+03	-3.170299999999999727e+02	-1.289360000000000070e+02	1.551803000000000111e+03	-3.904259999999999877e+02	6.824599999999999511e+01	1.269980999999999995e+03	-3.175720000000000027e+02	4.066199999999999903e+01	1.344668999999999869e+03	-1.748490000000000180e+02	1.040169999999999959e+02	1.069462999999999965e+03	-6.254099999999999682e+01	1.319350000000000023e+02	1.130243000000000166e+03	-1.532880000000000109e+02	-1.834679999999999893e+02	1.168965999999999894e+03	-5.022999999999999687e+01	-1.449230000000000018e+02	1.080043000000000120e+03	-9.195299999999998875e+01	-1.331260000000000048e+02	1.169653999999999996e+03	-8.576400000000001000e+01	-1.772680000000000007e+02	1.288372000000000071e+03	-4.706779999999999973e+02	-2.311239999999999952e+02	1.365564999999999827e+03	-3.867599999999999909e+02	-4.125499999999999545e+02	1.093245000000000118e+03	-4.199609999999999559e+02	-3.030709999999999695e+02	1.034576000000000022e+03	-4.284649999999999750e+02	-3.217160000000000082e+02	1.172420000000000073e+03	-4.834540000000000077e+02	-3.278720000000000141e+02	1.161378999999999905e+03	-1.524509999999999934e+02	-3.354770000000000323e+02	1.067268000000000029e+03	-1.872330000000000041e+02	-2.815150000000000432e+02	1.132743000000000166e+03	-2.211119999999999948e+02	9.073799999999999955e+01	4.662909999999999968e+02	-1.499240000000000066e+02	-3.983899999999999864e+01	5.465510000000000446e+02	-8.624600000000000932e+01	1.434799999999999898e+02	1.159549999999999983e+02	-1.403170000000000073e+02	4.033500000000000085e+01	1.121340000000000003e+02	-1.711650000000000205e+02	5.706799999999999784e+01	2.888389999999999986e+02	-1.114779999999999944e+02	1.238659999999999997e+02	4.103709999999999809e+02	-1.707839999999999918e+02	-5.801000000000000156e+00	4.179159999999999968e+02	-1.143210000000000122e+02	1.056480000000000103e+02	6.269800000000000040e+01	-2.507099999999999795e+01	6.262199999999999989e+01	7.559900000000000375e+01	-4.045900000000000318e+01	1.854700000000000060e+01	5.944599999999999795e+01	-6.617000000000000171e+01	1.406740000000000066e+02	8.602299999999999613e+01	-2.326469999999999914e+02	3.461999999999999744e+00	5.394899999999999807e+01	-1.548199999999999932e+01	-2.474850000000000136e+02	4.544699999999999704e+02	-3.776200000000000045e+02	-4.690099999999999625e+01	4.163359999999999559e+02	-2.244140000000000157e+02	-2.948870000000000005e+02	6.565069999999999482e+02	-2.380510000000000161e+02	-1.950430000000000064e+02	9.373799999999999955e+01	-3.832119999999999891e+02	-1.198130000000000024e+02	1.005729999999999933e+02	-2.965709999999999695e+02	-2.145780000000000030e+02	1.753379999999999939e+02	-3.116769999999999641e+02	-2.321050000000000182e+02	4.037720000000000482e+02	-3.985169999999999959e+02	-2.419639999999999986e+02	3.998310000000000173e+02	-2.890939999999999941e+02	-2.683580000000000041e+02	5.670100000000000051e+01	-2.987270000000000323e+02	-2.462909999999999968e+02	6.851500000000000057e+01	-2.524719999999999800e+02	-2.201780000000000257e+02	5.956499999999999773e+01	-2.172860000000000014e+02	-1.058359999999999985e+02	6.519500000000000739e+01	-4.139379999999999882e+02	-2.472900000000000205e+02	5.342000000000000171e+01	-1.722480000000000189e+02	-1.063509999999999991e+02	4.463960000000000150e+02	-2.857060000000000173e+02
